<?xml version="1.0" encoding="utf-8"?>
<!-- Generator: Adobe Illustrator 19.2.0, SVG Export Plug-In . SVG Version: 6.00 Build 0)  -->
<svg version="1.1" id="Camada_1" xmlns="http://www.w3.org/2000/svg" xmlns:xlink="http://www.w3.org/1999/xlink" x="0px" y="0px"
	 viewBox="0 0 1033.6 438.2" style="enable-background:new 0 0 1033.6 438.2;" xml:space="preserve">
<style type="text/css">
	.st0{clip-path:url(#SVGID_2_);fill:#455C7C;}
	.st1{clip-path:url(#SVGID_2_);fill:#DE8A2E;}
	.st2{clip-path:url(#SVGID_4_);fill:url(#SVGID_5_);}
	.st3{clip-path:url(#SVGID_7_);fill:url(#SVGID_8_);}
	.st4{clip-path:url(#SVGID_10_);fill:#455C7C;}
	.st5{clip-path:url(#SVGID_12_);fill:url(#SVGID_13_);}
	.st6{clip-path:url(#SVGID_15_);fill:url(#SVGID_16_);}
	.st7{clip-path:url(#SVGID_18_);fill:url(#SVGID_19_);}
</style>
<g>
	<defs>
		<rect id="SVGID_1_" width="1033.6" height="438.2"/>
	</defs>
	<clipPath id="SVGID_2_">
		<use xlink:href="#SVGID_1_"  style="overflow:visible;"/>
	</clipPath>
	<path class="st0" d="M753.7,84.4h8.8V19.2h-8.8V84.4z M663.4,84.4h8.8V54.6H706v29.8h8.8V19.2H706v27.1h-33.8V19.2h-8.8V84.4z
		 M584.8,77c2.2,3.1,5.2,5.3,8.9,6.8c3.7,1.5,7.7,2.2,11.9,2.2c3.1,0,6.1-0.5,8.8-1.4c2.8-0.9,5.2-2.2,7.2-4c2-1.7,3.6-3.8,4.8-6.4
		c1.2-2.5,1.8-5.3,1.8-8.5c0-3.9-0.8-7-2.4-9.2c-1.6-2.2-3.6-4-5.9-5.3c-2.4-1.3-4.9-2.3-7.7-3.1c-2.8-0.7-5.4-1.6-7.7-2.5
		c-2.4-0.9-4.3-2.1-5.9-3.6c-1.6-1.5-2.4-3.6-2.4-6.4c0-1,0.2-2.1,0.6-3.2c0.4-1.2,1.1-2.3,2.1-3.3c1-1,2.3-1.8,3.9-2.5
		c1.6-0.6,3.7-1,6.1-1c2.6,0,4.9,0.5,6.9,1.6c2,1,3.6,2.4,4.7,4.1l7.2-6.5c-2.5-3-5.3-5-8.6-6c-3.3-1-6.7-1.5-10.2-1.5
		c-3.9,0-7.3,0.6-10.1,1.8c-2.8,1.2-5.1,2.7-6.9,4.5c-1.8,1.8-3.1,3.7-3.9,5.9c-0.8,2.1-1.2,4.2-1.2,6.1c0,4.2,0.8,7.6,2.4,10.1
		c1.6,2.5,3.6,4.5,5.9,5.9c2.4,1.5,4.9,2.6,7.7,3.5c2.8,0.8,5.4,1.7,7.7,2.6c2.4,0.9,4.3,2,5.9,3.3c1.6,1.3,2.4,3.2,2.4,5.8
		c0,1.8-0.4,3.3-1.2,4.7c-0.8,1.4-1.8,2.5-3.1,3.4c-1.3,0.9-2.7,1.6-4.2,2.1c-1.5,0.5-3,0.7-4.5,0.7c-2.6,0-5.2-0.6-7.7-1.7
		c-2.5-1.1-4.5-2.9-6.1-5.3L584.8,77z M502.1,19.2v41.3c0,3.8,0.6,7.3,1.9,10.4c1.3,3.1,3.1,5.8,5.3,8.1c2.3,2.3,4.9,4,8,5.2
		c3.1,1.2,6.4,1.8,9.9,1.8c3.6,0,6.9-0.6,9.9-1.8c3.1-1.2,5.7-3,8-5.2c2.3-2.3,4-5,5.3-8.1c1.3-3.1,1.9-6.5,1.9-10.4V19.2h-8.8v39.9
		c0,2-0.3,4.1-0.8,6.3c-0.6,2.2-1.5,4.2-2.8,6c-1.3,1.8-3,3.3-5.1,4.5c-2.1,1.2-4.7,1.7-7.7,1.7c-3.1,0-5.6-0.6-7.7-1.7
		c-2.1-1.2-3.8-2.7-5.1-4.5c-1.3-1.8-2.2-3.9-2.8-6c-0.6-2.2-0.8-4.3-0.8-6.3V19.2H502.1z M424.7,77c2.2,3.1,5.2,5.3,8.9,6.8
		c3.7,1.5,7.7,2.2,11.9,2.2c3.1,0,6.1-0.5,8.8-1.4c2.8-0.9,5.2-2.2,7.2-4c2-1.7,3.6-3.8,4.8-6.4c1.2-2.5,1.8-5.3,1.8-8.5
		c0-3.9-0.8-7-2.4-9.2c-1.6-2.2-3.6-4-5.9-5.3c-2.4-1.3-4.9-2.3-7.7-3.1c-2.8-0.7-5.4-1.6-7.7-2.5c-2.4-0.9-4.3-2.1-5.9-3.6
		c-1.6-1.5-2.4-3.6-2.4-6.4c0-1,0.2-2.1,0.6-3.2c0.4-1.2,1.1-2.3,2.1-3.3c1-1,2.3-1.8,3.9-2.5c1.6-0.6,3.7-1,6.1-1
		c2.6,0,4.9,0.5,6.9,1.6c2,1,3.6,2.4,4.7,4.1l7.2-6.5c-2.5-3-5.3-5-8.6-6c-3.3-1-6.7-1.5-10.2-1.5c-3.9,0-7.3,0.6-10.1,1.8
		c-2.8,1.2-5.1,2.7-6.9,4.5c-1.8,1.8-3.1,3.7-3.9,5.9c-0.8,2.1-1.2,4.2-1.2,6.1c0,4.2,0.8,7.6,2.4,10.1c1.6,2.5,3.6,4.5,5.9,5.9
		c2.4,1.5,4.9,2.6,7.7,3.5c2.8,0.8,5.4,1.7,7.7,2.6c2.4,0.9,4.3,2,5.9,3.3c1.6,1.3,2.4,3.2,2.4,5.8c0,1.8-0.4,3.3-1.2,4.7
		c-0.8,1.4-1.8,2.5-3.1,3.4c-1.3,0.9-2.7,1.6-4.2,2.1c-1.5,0.5-3,0.7-4.5,0.7c-2.6,0-5.2-0.6-7.7-1.7c-2.5-1.1-4.5-2.9-6.1-5.3
		L424.7,77z"/>
	<path class="st1" d="M365,412.4l7.5-18.1h0.1l7.4,18.1H365z M352.9,426.8h6.3l3.9-9.8h18.8l4,9.8h6.3l-16.9-39.5h-4.9L352.9,426.8z
		 M304.7,426.8h5.4v-32.5h0.1l13.3,32.5h3.6l13.3-32.5h0.1v32.5h5.4v-39.5h-8l-12.5,29.9h-0.2l-12.6-29.9h-8V426.8z M268.8,426.8
		h26.5v-5h-21.2v-12.7h18.8v-5h-18.8v-11.8h20.2v-5h-25.5V426.8z M222.1,426.8h5.4v-32.5h0.1l22,32.5h6.8v-39.5H251v32.5h-0.1
		l-21.8-32.5h-7V426.8z M187.6,412.4l7.5-18.1h0.1l7.4,18.1H187.6z M175.5,426.8h6.3l3.9-9.8h18.8l4,9.8h6.3l-16.9-39.5h-4.9
		L175.5,426.8z M154.7,392h7c1,0,2.1,0.1,3.1,0.3c1,0.2,1.9,0.5,2.7,0.9c0.8,0.4,1.4,1.1,1.9,1.9c0.5,0.8,0.7,1.9,0.7,3.3
		c0,1.3-0.2,2.4-0.7,3.3c-0.5,0.8-1.1,1.5-1.9,1.9c-0.8,0.4-1.7,0.8-2.7,0.9c-1,0.2-2.1,0.3-3.1,0.3h-7V392z M149.3,426.8h5.4v-17.4
		h8.5c2.5,0,4.6-0.3,6.3-1s2.9-1.6,3.9-2.6c0.9-1.1,1.6-2.3,2-3.6c0.4-1.3,0.6-2.6,0.6-3.8c0-1.2-0.2-2.5-0.6-3.8
		c-0.4-1.3-1-2.5-2-3.6c-0.9-1.1-2.2-1.9-3.9-2.6c-1.6-0.7-3.7-1-6.3-1h-13.9V426.8z M131.6,426.8h5.4v-39.5h-5.4V426.8z"/>
	<path class="st1" d="M479.2,428.1c0.1,0.3,0.3,0.6,0.5,0.9c0.1,0.1,0.2,0.1,0.3,0c0.1-0.1,0.1-0.2,0.2-0.3
		c-0.1-0.3-0.2-0.6-0.3-0.9c-0.1-0.3-0.3-0.3-0.5-0.2C479.3,427.7,479.1,427.9,479.2,428.1 M479.8,427c0,0,0.1-0.1,0.2-0.1
		c0-0.2-0.1-0.3-0.3-0.4c0,0-0.2,0.1-0.2,0.1C479.5,426.9,479.6,427,479.8,427 M451.7,427.1c0,0.2,0,0.5,0.2,0.5c0.3,0.1,0.7,0,1,0
		c0.1,0,0.2-0.1,0.2-0.3c0-0.1-0.1-0.2-0.2-0.3c-0.3-0.1-0.6-0.1-0.9-0.2C451.9,426.7,451.7,426.8,451.7,427.1 M450.9,426.4
		c0,0,0,0.2,0,0.2c0.2,0.1,0.3,0.1,0.4,0c0,0,0-0.1,0-0.2C451.2,426.3,451,426.3,450.9,426.4 M504.7,400c0-0.2,0.4-0.4,0.1-0.5
		c-0.3-0.1-0.5,0.1-0.6,0.3c0,0.1,0,0.3,0,0.4C504.4,400.1,504.6,400.1,504.7,400 M504.9,401.6c0,0-0.1,0.2-0.3,0.7
		C504.7,402,504.8,401.8,504.9,401.6 M407.5,415.2c-0.1,0-0.1,0.1-0.1,0.2c0,0.1,0,0.2,0.2,0.2c0.1,0,0.1-0.1,0.2-0.2
		C407.7,415.2,407.6,415.2,407.5,415.2 M407,414.5c0,0.2,0.1,0.5,0.5,0.5c0.3,0,0.4-0.3,0.4-0.4c0-0.3-0.2-0.4-0.5-0.5
		C407.1,414.1,407,414.3,407,414.5 M445.7,407.5c-0.1-0.2-0.3-0.3-0.7-0.2c-0.3,0-0.5,0.1-0.4,0.2c0,0.2,0.3,0.3,0.6,0.3
		C445.5,407.7,445.7,407.6,445.7,407.5 M446.1,407.6c-0.1,0-0.2,0-0.3,0.1c-0.1,0,0,0.1,0.1,0.1C446,407.8,446.1,407.7,446.1,407.6
		 M463,398.4L463,398.4L463,398.4L463,398.4z M479.5,412.6c-0.2,0.1-0.4,0.2-0.3,0.4c0,0.2,0.1,0.5,0.5,0.5c0.3,0,0.4-0.3,0.4-0.4
		C480,412.8,479.8,412.7,479.5,412.6 M493.6,406.4c0.6,0.9,0,1.8,0,2.8c0,0.3-0.1,0.5-0.4,0.6c-0.1,0.1-0.3,0.2-0.4,0.3
		c-0.4,0.8-1.2,0.9-2.1,0.8c-1-0.2-1.8-0.6-2.3-1.4c-0.6-1-0.4-2.1-0.3-3.1c0-0.3,0.3-0.5,0.5-0.5c1-0.4,2-0.7,3.1-0.2
		c0.6,0.2,1.2,0.4,2.1,0.1C493.7,406,493.5,406.2,493.6,406.4 M496.4,406.8c0.2-0.3,0.1-0.7-0.1-1c-0.5-0.5-0.8-1-1.2-1.6
		c-0.2-0.4-0.6-0.7-1.1-0.8c-1-0.3-2-0.7-3-0.9c-1.2-0.3-2.3,0-3.3,0.6c-0.8,0.5-0.6,1.1-0.6,1.8c0,0.1,0,0.2,0,0.3
		c-0.1,0.3,0,0.5,0,0.7c0,0.4,0.1,0.8-0.3,1c-0.5,0.3-0.4,0.7-0.5,1.1c-0.3,1.5,0.5,2.6,1.4,3.7c0.9,1,2.2,1.6,3.7,1.3
		c1.6-0.3,2.9-0.9,3.3-2.4c0.1-0.3,0.2-0.6,0.5-0.8c0.5-0.4,0.7-0.9,0.8-1.5C496.1,407.8,496.2,407.3,496.4,406.8 M499.8,410.7
		c-0.4,0.5-0.3,1.2-0.9,1.5c-0.2,0.1-0.3,0.3-0.5,0.4c-1.7,1-3.4,1.9-5.2,2.8c-1.1,0.5-2.2,1-3.4,1.3c-1.4,0.5-2.9,0.6-3.8,1.7
		c-2.2-1.4-3.1-3.3-3.6-5.3c0.2-0.1,0.3-0.4,0.3-0.4s-2.1-8.4-1.4-11.4c-0.4,1.2-1.3,4.1-0.9,7.6l-0.4-0.1c0-0.1-0.1-0.1-0.1-0.2
		c-0.4,1.1-0.3,1.8,0.4,2.6c0.1,0.1,0.1,0.2,0.2,0.2c0,0,0,0.1,0,0.1c0,0.1,0.1,0.3,0.1,0.4c0,0,0,0,0,0c0,0.3-0.1,0.6,0.2,0.8
		c0,0.1,0,0.2,0.1,0.3c-0.1-0.1-0.2-0.3-0.3-0.3c0,0-0.1,0.1-0.1,0.1c-0.1,1.3,0.1,2.5,0.8,3.6c0.5,0.9,1.1,1.8,1.7,2.6
		c-1.5,0.7-3.2,0.8-4.7,1.2c-0.3,0.1-0.5,0-0.6-0.2c-0.1,0.8-2.2,1.4-2.2,1.4c-0.1,0.2-0.3,0.3-0.6,0.3c-1.2,0.2-2.5,0.3-3.7,0.5
		c-0.5,0.1-1,0.1-1.5,0.2c-2.9,1-6,1.4-9.1,1.2c-0.1,0.1-0.2,0.1-0.3,0c-0.6,0-1.1-0.1-1.7-0.1c0.1,0,0.2,0.1,0.3,0.2
		c-0.6-0.1-0.9-0.1-1.3-0.2c0.1,0,0.1-0.1,0.2-0.1c-7.9-1-15.4-4.7-19.4-7c-2-0.8-4.2-2.6-4.2-2.6l-0.3-0.5l-2.3-2
		c-0.4-0.4-0.7-0.8-0.4-1.3c-1.3-0.1-1.9-0.6-1.9-1.7c0-0.4,0-0.7-0.3-0.9c-0.3-0.2-0.4-0.5,0-0.8c0.2-0.2-0.1-0.3-0.4-0.3
		c0.1-0.1,0.1-0.3,0.2-0.3c1-0.4,1.9-0.8,2.9-1.1c1.1-0.5,11.8-5.5,22.3-7c0,0,0.1-0.1,0.2-0.1c0,0,0.1,0,0.1,0
		c1.4-0.2,2.8-0.3,4.2-0.4c6.2-0.5,17.4-1.2,20.6,0c0.9,0,1.9,0.2,2.8,0.3c0.3,0,0.5,0.1,0.5,0.3c0,0-0.1,0.1-0.1,0.1
		c0,0.1,0.2,0.3,0.5,0.2c0.9,0.3,1.9,0.2,2.8,0.5c0.3,0.1,0.5,0.1,0.6,0.4c0.1,0.2,0.4,0.4,0.6,0.5c1.7,0.4,2.9,1.6,4.8,1.7
		c0.2,0,0.3,0.1,0.4,0.2c1.9,0.8,4,1.5,5.7,2.7c1,0.7,1.6,1.6,2.4,2.4c0.2,0.2,0.2,0.5-0.1,0.7c-0.2,0.1-0.5,0.3-0.7,0.5
		c-0.7,0.5-0.7,0.7,0.1,1c0.1,0,0.2,0.1,0.2,0.1C500.4,409.7,500.5,410,499.8,410.7 M471.9,389.8c-0.1,0-0.1,0-0.2-0.1
		c0,0,0-0.1,0-0.1C471.8,389.7,471.9,389.7,471.9,389.8 M473.7,391.2c-0.8-2.6-9.2-6.3-10.4-6.3
		C465.2,384.5,473.8,387.1,473.7,391.2 M462.8,385.4c0.1,0.1,2.3,1.2,2.4,1.3c0.1,0.1,1.4,1.1,1.2,1.1c-0.1,0-5.9-1.9-4.8-2.5
		C461.7,385.3,462.8,385.5,462.8,385.4 M463.4,389.2c-0.1,0.1-0.1,0.2-0.2,0.2c-0.7-0.2-1.3-0.3-1.9-0.6c-0.2-0.1-1.4-1.7-1.3-1.8
		C460.4,386.8,464.9,388.2,463.4,389.2 M458.4,388.2c0-0.1,2.5,0.8,2.6,0.7c0.4,0.3,1,0.8,1.4,1c0.3,0.1,0,0.4,0.2,0.6
		c0.3,0.3,0.2,0.6-0.1,0.7c-0.3,0.3-0.7,0.3-1.1,0.1c-0.3-0.2-0.5-0.4-0.8-0.6C459.9,390.2,457.8,389,458.4,388.2 M465.1,396.5
		c-0.2-0.1-0.2,0.1-0.2,0.1c-0.1,0.3-0.4,0.3-0.6,0.1c-0.2-0.3-0.5-0.4-0.8-0.3c-0.9,0.2-1.8-0.1-2.8,0.3c0.1-0.5,0.4-0.6,0.7-0.6
		c1-0.1,2.1-0.2,3.1-0.2c0.4,0,0.7,0.2,0.9,0.5C465.5,396.8,465.3,396.7,465.1,396.5 M464.7,388.7L464.7,388.7L464.7,388.7
		L464.7,388.7z M470.7,391.1c0.1,0,0.3,0,0.2,0.2c0,0-0.2,0-0.2,0c-0.1,0-0.1-0.1-0.2-0.1C470.6,391.1,470.7,391.1,470.7,391.1
		 M470.5,391.1c-0.5,0-0.7-0.3-1-0.5c-0.7-0.6-1.3-1.1-2-1.7c-0.1-0.1-1.6-0.6-1.3-0.9c0.6,0.2,2.4,0.4,3.1,0.5c0.1,0,2.2,1,2.3,1.1
		C471.6,390.2,471.9,390.9,470.5,391.1 M467.6,395.8L467.6,395.8l-0.1,0L467.6,395.8z M466.6,395.9c0.1,0,0.1,0.1,0.2,0.2
		c-0.1,0.1-0.2,0.1-0.3,0.1c0-0.1-0.1-0.1-0.1-0.2C466.4,395.9,466.5,395.8,466.6,395.9 M465.3,390.7c-0.3-0.7-0.4-2.2-1-2.8
		c1.2,0.6,3.4,2.1,4.3,3.1c1.4,1.1-1.5,1.5-1.9,1.3C466.3,392,465.4,390.8,465.3,390.7 M458.4,396.7c0.2,0.3-0.2,0.2-0.3,0.2
		C458.2,396.8,458.4,396.7,458.4,396.7 M458.1,397c-0.2,0.2-0.5,0.2-0.8,0.2C457.5,396.8,457.8,396.9,458.1,397 M458.6,391.5
		c0.2-0.2,0.5-0.2,0.7-0.1c0.2,0.1,0.3,0.3,0.5,0.4c2.4,0.6-0.2,1.2-0.6,1.4c-0.5,0.2-2.8,0.8-3.6,1
		C456.2,393.6,458.3,391.8,458.6,391.5 M450.1,397.3c-0.5,0.4-0.9,0.5-1.8,0.5C449,397.5,449.4,397.2,450.1,397.3 M446.6,398.3
		c0,0.2-0.1,0.2-0.3,0.2c-0.2,0-0.4-0.1-0.7-0.1c0.3-0.1,0.5-0.2,0.7-0.2C446.4,398.1,446.6,398.2,446.6,398.3 M450.2,424.8
		c0-0.2,0.2-0.2,0.4-0.2c0.2,0,0.4,0.1,0.4,0.3c0,0.1,0,0.2-0.1,0.2c-0.1,0-0.2,0-0.3,0.1c0,0,0,0,0,0c0,0,0,0,0,0c0,0,0,0-0.1,0
		c0,0,0,0,0.1,0C450.4,425,450.3,424.9,450.2,424.8 M450.5,425.8c-0.1-0.1,0.1-0.2,0.2-0.2c0.1,0,0.2,0.1,0.2,0.2
		c0,0.1-0.1,0.2-0.2,0.2C450.6,426,450.5,425.9,450.5,425.8 M455.3,426.8c0.9,0.2,3.3,0.8,3.9,1c0.4,0.1,3.2,0.8,0.6,1.4
		c-0.2,0.1-0.3,0.3-0.6,0.4c-0.3,0.1-0.6,0.1-0.8-0.1C458.2,429.1,455.9,427.4,455.3,426.8 M460.7,430.2c0.3-0.2,0.6-0.4,0.9-0.6
		c0.4-0.3,0.8-0.2,1.1,0.1c0.2,0.2,0.4,0.4,0.1,0.7c-0.2,0.2,0.1,0.5-0.2,0.6c-0.4,0.2-1.1,0.7-1.5,1c-0.1-0.1-2.7,0.8-2.8,0.7
		C457.7,432,459.9,430.8,460.7,430.2 M460,434c-0.2-0.1,1.2-1.7,1.4-1.8c0.6-0.3,1.3-0.4,2-0.6c0.1,0,0.2,0.1,0.3,0.2
		C465.3,432.8,460.4,434.1,460,434 M467,433.1c0.2,0-1.2,1-1.3,1.1c-0.1,0.1-2.5,1.2-2.6,1.3c0-0.1-1.2,0.1-1.3,0.1
		C460.6,435,466.9,433.1,467,433.1 M465.1,432.2L465.1,432.2L465.1,432.2L465.1,432.2z M465.8,430.3c0.1-0.1,1-1.3,1.6-1.6
		c0.4-0.2,3.5,0.2,2,1.3c-1,1.1-3.4,2.6-4.7,3.1C465.3,432.4,465.4,431,465.8,430.3 M471.6,429.9c-0.1,0-0.2,0-0.2,0
		c0.1,0,0.1-0.1,0.2-0.1c0.1,0,0.2,0,0.3,0C471.9,429.9,471.8,429.9,471.6,429.9 M472.4,431.4c0,0.1-2.3,1.1-2.4,1.1
		c-0.7,0.1-2.7,0.3-3.3,0.5c-0.3-0.3,1.3-0.8,1.4-0.9c0.7-0.6,1.4-1.1,2.2-1.7c0.3-0.2,0.6-0.5,1.1-0.5
		C472.8,430,472.6,430.7,472.4,431.4 M472.7,431.3C472.7,431.3,472.7,431.3,472.7,431.3c0.1-0.1,0.1-0.1,0.2-0.1
		C472.8,431.2,472.8,431.3,472.7,431.3 M463.6,436.1c1.3,0,10.4-3.7,11.2-6.3C475,433.8,465.6,436.5,463.6,436.1 M423.9,408.5
		c0,0-0.1,0.1-0.2,0.2c-2.4,0.7-6.5,2-6.5,2c-0.8-0.1-3.5,0.3-3.5,0.3c-3,0.6-5.7,0.3-7.3,0.1c0-0.8-0.1-1.4-0.2-1.9
		c-0.2-0.6,0-0.2,0-0.2s1.7-0.6,2.5-0.5C413.7,409,423.9,408.5,423.9,408.5 M407,407.5C407.1,407.5,407.1,407.5,407,407.5
		C407.1,407.5,407.1,407.6,407,407.5C407.1,407.6,407,407.6,407,407.5C407,407.5,407,407.5,407,407.5 M423.4,408
		c-0.9,0-15.5-1.8-17.2-0.6c0,0-1.6-2-0.4-3.7c0,0,10-1.2,15.6,3C421.4,406.6,424,408,423.4,408 M419.1,402.2c0,0-0.9-0.3-2.4-0.7
		c-1.2-1-2.7-0.8-4.1-1.1c-2-0.5-4-1.1-6.1-1.5c0-0.1,0-0.2,0-0.3c0.1-0.6,0.1-1.2,0.5-1.7c0.3-0.5,0.7-1,0.4-1.5
		c0.4-0.1,0.7,0,0.9,0.1c0,0,0.7,0.2,1.7,0.5c0.6,0.2,1.3,0.3,1.9,0.6c0.3,0.1,0.6,0.2,0.9,0.3c0.2,0,0.3,0,0.3,0.1
		c2.4,0.9,4.5,2.1,5,2.5C422.8,403.2,419.1,402.1,419.1,402.2 M418.9,399.3c0,0-0.3-0.1-0.7-0.4c-1.2-1-2.4-2-3.8-2.7
		c-2.2-1.1-4.7-1.6-7.1-1.7l0.3,0.1c0,0,0,0-0.1,0c-2.4,0-0.5-0.7-0.5-0.7s-0.2-2.4,1-1.4c0,0,0.9,0.4,2.3,1.1c0,0,0.1,0,0.1,0
		c0.7,0.2,1.2,0.5,1.7,0.8C414.7,395.9,417.7,397.7,418.9,399.3 M415.9,396.4c-0.2,0-0.3-0.1-0.3-0.2
		C415.7,396.2,415.8,396.3,415.9,396.4 M415,395.7C415,395.7,414.9,395.7,415,395.7c-0.2-0.1-0.3-0.2-0.4-0.3l0.2,0.1
		C414.8,395.6,414.9,395.7,415,395.7 M409.6,392.2C409.6,392.3,409.5,392.3,409.6,392.2c-0.1,0-0.2-0.1-0.2-0.1c0,0,0.1,0,0.1,0
		C409.6,392.1,409.6,392.2,409.6,392.2 M407.7,399.4c-0.7,0.1-1,0-1.1-0.5l1.6,0.5C408,399.4,407.8,399.4,407.7,399.4 M407.2,402.6
		c0.1,0.1,0.2,0.1,0.2,0.2c-0.2,0.1-0.3,0.2-0.5,0C406.8,402.6,407.2,402.7,407.2,402.6 M406.2,402.7
		C406.2,402.7,406.2,402.7,406.2,402.7C406.2,402.7,406.2,402.8,406.2,402.7C406.1,402.7,406.1,402.7,406.2,402.7
		C406.2,402.7,406.2,402.7,406.2,402.7 M406.9,399.7c0.3,0,0.6,0,0.9,0.1c2.1,0.7,4.3,0.9,6.4,1.4c0.5,0.1,1.1,0.3,1.5,0.5
		c0.7,0.4,1.4,0.8,2.1,1.1c0.3,0.1,0.5,0.3,0.6,0.8c-1.1-0.1-2.1-0.1-3.1-0.3c-1.4-0.3-2.8-0.3-4.2-0.3c-0.7,0-1.4-0.1-1.9-0.2
		c-0.5-0.1-0.8-0.2-1.2-0.1c0,0,0,0,0-0.1c0,0,0,0-0.1,0.1c0,0,0,0,0,0c-0.1,0-0.3,0.1-0.4,0.2c0-0.1,0-0.1,0-0.2
		c-0.1,0-0.2,0-0.2,0c0-0.3-0.1-0.5-0.5-0.4c-0.5,0.2-0.8-0.1-0.7-0.4c0.1-0.5,0-0.9,0-1.4C406,399.9,406.2,399.7,406.9,399.7
		 M405.5,404.3c-0.1,0-0.1,0.1-0.2,0.1c0,0-0.1,0-0.1,0C405.2,404.3,405.4,404.3,405.5,404.3 M405.4,395.1
		C405.4,395.2,405.4,395.2,405.4,395.1C405.3,395.2,405.3,395.2,405.4,395.1C405.3,395.1,405.3,395.1,405.4,395.1
		C405.4,395.1,405.4,395.1,405.4,395.1 M406,416.8c0,0,0.9-1,0.6-2.2c0-0.2-0.1-0.3-0.1-0.5c0.2-0.2,0.4-0.3,0.4-0.3
		c5.2-0.4,10-1.9,10-1.9c1.5-0.9,4.5-2.1,6.4-2.9c-1.4,1.4-5,4.9-8.3,6.6c-4.1,2.1-8.2,2.7-8.2,2.7L406,416.8z M408.1,418.6
		c0,0,0.1-0.1,0.1-0.1c0,0,0.1,0,0.1,0C408.3,418.5,408.2,418.6,408.1,418.6C408.2,418.6,408.1,418.6,408.1,418.6 M404.8,414.8
		C404.8,414.8,404.8,414.8,404.8,414.8C404.8,414.8,404.7,414.8,404.8,414.8C404.7,414.7,404.8,414.7,404.8,414.8
		C404.8,414.7,404.8,414.7,404.8,414.8 M507.1,412.8c0.3-0.2,0.1-0.4,0-0.7c-0.1-0.2-0.1-0.4-0.3-0.5c-0.5-0.3-0.4-0.8-0.4-1.2
		c0-0.3,0.1-0.6,0-0.8c-0.1-0.5,0-1.1-0.9-1.3c0.2-0.2,0.3-0.3,0.5-0.4l0.3,0.1c0.3,0,0.5-0.3,0.5-0.5c0.1-0.1,0.3-0.1,0.2-0.3
		c0-0.1-0.1-0.1-0.2-0.2c0-0.1-0.1-0.2-0.1-0.3c-0.1-0.2-0.2-0.3-0.4-0.4c0-0.1,0-0.2,0-0.3c0,0.2,0.1,0.5,0.5,0.5
		c0.8,0-0.2-0.7-0.4-0.8c-0.6-0.4-1.1-0.8-1.7-1.2c-3.7-2.6-7.3-5.1-11.5-7c-4.3-1.9-8.8-3.3-13.3-4.1l1.8,1c-0.5,0-1-0.1-1.6-0.5
		c-2.4-0.5-3.2-1-3.2-1c-0.5-0.3-1.3-0.9-0.5-1.7c0.1-0.1-1.5,0-1.5-0.1c-0.4-0.8-0.3-1.1-0.7-1.9c-0.6-1.3-1.7-2.3-2.9-3.2
		c-0.7-0.5-1.4-1.1-2.1-1.6c-0.7-0.5-1.3-1-2.2-1.3c-0.9-0.4-1.9-0.6-2.9-0.8c-0.7-0.1-1.1,0.1-1.6,0.5c-0.1,0.1-0.2,0.2-0.2,0.2
		c0.5,0.6-0.3,0.7-0.8,0.9c-1.4,0.9-2.8,1.6-3.8,2.8c-0.3,0.4-0.5,0.8-0.4,1.3c0.4,2.2-1.5,4.5-3.3,5.6c-0.9,0.5-1.9,0.9-2.9,1.2
		c-5.5,1.8-11,3.7-16.4,5.8c-3.6,2-6.7,2-7.7,1.9c-0.1,0-0.2,0-0.3,0c-0.5-0.4-1.1-0.3-1.7-0.4c-0.9-0.1-1.4-0.7-1.9-1.3
		c-0.3-0.3-0.6-0.6-0.9-0.9c0,0,0,0,0,0s-2.4-2.5-5.3-4.9c0,0,0,0,0,0c0,0-0.1-0.1-0.1-0.2c0,0,0,0,0,0c-0.4-0.4-0.9-0.7-1.3-1.1
		c0,0,0-0.1-0.1-0.2c-0.1-0.1-0.1-0.1-0.2-0.1c-0.8-0.6-1.6-1.3-2.4-1.9c-1.2-1-2.2-2.1-3.3-3.2c0.2,0.5,0.4,0.9,0.6,1.4
		c-0.1-0.1-0.3-0.2-0.4-0.3c0.2,0.2,0.4,0.4,0.5,0.6c-0.7-0.2-1.4-0.6-2.1-0.9c0.1-0.1,0.1-0.3,0.2-0.4c-0.1,0.1-0.2,0.2-0.3,0.3
		c-0.3,0.2-0.5-1.2-0.5-1.2c-0.7,1.2-1.3,2.3-2,3.5c-0.4,0.7-0.7,1.3-0.9,2.1c-0.2,1,0.1,2,0.4,3c-0.2,0-0.4,0-0.5,0.2
		c0.1,0.2,0.2,0.3,0.4,0.3c-1.4,4-1.7,8.3-0.7,12.4c0.4,1.6,0.9,3.3,0.1,4.7c-0.2,0.4-0.5,0.7-0.7,1.1c-0.3,0.7,0,1.5,0.5,2.1
		c0.5,0.6,0.6,1.2,0.7,1.9c0.1,0.5,0.1,1,0,1.4c-0.1,0.5,0.2,0.9,0.7,1.2c0.4-0.2,0.3-0.5,0.3-0.7c-0.1-0.2-0.1-0.5,0-0.8
		c0,0,0,0,0.1,0.1c-0.1,0.4-0.1,0.7-0.1,0.7s4,0.1,13.7-6.5c0.1,0,0.2-0.1,0.3-0.2l3.1-2.1c0.6-0.4,1.2-0.9,2.1-0.9
		c0.3,0,0.5,0.1,0.8,0.1c0,0,0,0.1,0,0.1c-0.3,0-0.5,0-0.8,0l2.4,1c0.2,0.2,0.5,0.4,0.7,0.7c0.6,0.5,1.2,1.1,1.8,1.5
		c0.5,0.3,1,0.5,1.5,0.9c0.7,0.7,1.2,1.6,1.9,2.2c1,0.7,2.1,0.3,3.2,0.9c0.6,0.4,1.2,0.8,1.8,1.3c2.3,1.7,5.2,2.4,7.8,3.3
		c0.4,0.2,0.9,0.7,1.3,1c0.7,0.4,1.4,0.6,2.1,0.9c0.7,0.3,2.1,1.1,2.9,0.8c0,0,0.1,0,0.1,0c0.6,0.4,1,0.8,1.1,0.8
		c0.8,0.6,1.7,1.2,2.4,1.8c1.1,1,1.4,2.3,1.2,3.6c-0.1,0.5,0,0.9,0.4,1.3c1.2,1.4,3.1,2.2,4.7,3.2c0.2,0.1,0.3,0.2,0.4,0.4
		c0.1,0.2-0.1,0.4-0.2,0.4c1.4,0.1,2.4,0.6,3.8,0.2c1.3-0.3,2.6-1.1,3.7-1.8c0.8-0.5,1.5-1.1,2.3-1.6c1.3-0.9,2.5-1.9,3.1-3.2
		c0.5-1.1,0.6-2.5,2.3-2c-0.3-0.3-0.4-0.8-0.2-1.2c0.2-0.4,0.6-0.6,1.1-0.6c-0.1-0.4-0.3-0.8-0.4-1.2c-0.2,0-0.3,0.1-0.5,0.1
		c2.8-0.7,5.7-1.7,8.5-2.6c1.2-0.4,2.2-0.6,3.3-1.2c1.2-0.6,2.4-1.2,3.7-1.4c0.5-0.1,1-0.3,1.5-0.5c2-0.8,3.8-1.9,5.4-3.2
		c2-1.5,4.3-2.8,5.5-4.9c0.2-0.3,0.5-0.5,0.9-0.2C506.7,412.8,506.9,413,507.1,412.8 M508,412.1c0-0.2-0.2-0.3-0.4-0.3
		c-0.2,0-0.3,0.1-0.2,0.3c0,0.2,0.1,0.4,0.3,0.4C508,412.4,508,412.2,508,412.1 M512.7,409c0-0.1,0-0.2,0-0.3
		c-0.2-0.7-0.7-1.1-1.4-1c-1,0.1-1.5,0.5-1.4,1.5c0,0.1,0,0.4,0.1,0.6c0.2,0.4,0.4,0.8,0.9,0.9c0.7,0.1,1.4-0.1,1.9-0.3
		C513.2,410,512.9,409.4,512.7,409"/>
</g>
<g>
	<defs>
		<path id="SVGID_3_" d="M915.5,292.5c0-0.6,1.3-3.5,3.8-8.5c2.5-5,5.8-10.7,9.7-17c3.9-6.3,8-12.9,12.3-19.7
			c4.3-6.8,8-12.7,11.2-17.5c2.7-3.6,6.8-8.2,12.3-13.9c5.5-5.7,9.8-11.1,12.9-16.3c1.6,2.6,3.1,5.8,4.7,9.5
			c1.6,3.7,1.5,5.4,1.5,7.4c0,0.3,0.4,3.2-0.6,6.3c-1,3.1-2.3,6.6-3.8,10.5c-1.6,3.9-3.1,7.6-4.7,11.2c-1.6,3.6-2.7,5.8-3.5,6.8
			c-0.1,0.2-0.2,0.1-0.4,0c-0.6-0.2-1.8-0.3-4.6,6.3c-2.9,3.6-6,7.4-9.1,11.4c-3.1,4.1-6.3,7.8-9.4,11.2c-3.1,3.4-5.5,5.1-7,5.1
			c-2.3,0-2.7-0.5-1.2-1.5c1.6-1,1.4-1.5-0.6-1.5c-1.6,0-4.9,1.9-10,5.6c-5.1,3.7-9.6,6.7-13.5,9V292.5z M926.4,188.5
			c-0.2,0.3-0.4,0.7-0.7,1L926.4,188.5z M920.2,178.1c0.3,0.2,0.4,0.5,0.6,0.8c-0.7,0.5-1.5,1.1-2.2,1.7
			C918.8,179.4,919.4,178.6,920.2,178.1 M951.4,150.6c-5.1,1.5-10.3,3.4-15.6,5.8c-5.3,2.4-9.8,5.3-13.5,8.5
			c-3.7,3.2-5.2,7.1-4.4,11.7c-1.2,1-2,1.5-2.3,1.5l-1.2,0.5c2.2,0,3.5,0.8,3.9,2.3C878.3,212.2,862.2,282,862.2,282l0.3-0.5
			c-0.2,0.7-0.5,1.3-0.7,2c-2.6,7.3-3.8,13.6-3.8,18.7c0,1.3,0.6,4.1,1.8,8.5c1.2,4.4,2.1,8,2.9,11c3.5,0,6.2,2.1,7.9,6.3
			c1.8,4.2,3.6,7,5.6,8.3c5.9,3.9,11.6,7.7,17.3,11.4c5.7,3.7,13,5.6,22,5.6c11,0,23.1-3.4,36.4-10.2c0.8-1,1.5-2.3,2.1-3.9
			c0.6-1.6,1.5-2.8,2.6-3.4c21.5-15.6,39.7-32.1,54.6-49.6c14.9-17.5,22.3-35.2,22.3-53.1c0-10.4-2.8-20.5-8.5-30.4
			c-5.7-9.9-13-20-22-30.4c-0.8-0.6-1.8-1-2.9-1c-1.2,0-2.2-0.2-2.9-0.5c-0.8-0.6-1.6-1.8-2.3-3.4c-0.8-1-1.2-1.6-1.2-1.9
			c-2.7-2.3-6.1-5-10-8.3c-3.9-3.2-6.7-5.4-8.2-6.3c-3.1-1.3-5.9-1.7-8.2-1.2c-2.4,0.5-4.3-0.6-5.9-3.2
			C959.8,147.8,956.5,149.2,951.4,150.6"/>
	</defs>
	<clipPath id="SVGID_4_">
		<use xlink:href="#SVGID_3_"  style="overflow:visible;"/>
	</clipPath>
	
		<linearGradient id="SVGID_5_" gradientUnits="userSpaceOnUse" x1="-5.532065e-07" y1="438.198" x2="1" y2="438.198" gradientTransform="matrix(0 -206.868 -206.868 0 91594.9375 353.3499)">
		<stop  offset="0" style="stop-color:#5AA69C"/>
		<stop  offset="1" style="stop-color:#455C7C"/>
	</linearGradient>
	<rect x="858" y="146.5" class="st2" width="175.7" height="206.9"/>
</g>
<g>
	<defs>
		<path id="SVGID_6_" d="M553.9,255.7c0-0.6,1.3-3.5,3.8-8.5c2.5-5,5.8-10.7,9.7-17c3.9-6.3,8-12.9,12.3-19.7
			c4.3-6.8,8-12.7,11.2-17.5c2.7-3.6,6.8-8.2,12.3-13.9c5.5-5.7,9.8-11.1,12.9-16.3c1.6,2.6,3.1,5.8,4.7,9.5
			c1.6,3.7,1.5,5.4,1.5,7.4c0,0.3,0.4,3.2-0.6,6.3c-1,3.1-2.3,6.6-3.8,10.5c-1.6,3.9-3.1,7.6-4.7,11.2c-1.6,3.6-2.7,5.8-3.5,6.8
			c-0.1,0.2-0.2,0.1-0.4,0c-0.6-0.2-1.8-0.3-4.6,6.3c-2.9,3.6-6,7.4-9.1,11.4c-3.1,4.1-6.3,7.8-9.4,11.2c-3.1,3.4-5.5,5.1-7,5.1
			c-2.4,0-2.7-0.5-1.2-1.5c1.6-1,1.4-1.5-0.6-1.5c-1.6,0-4.9,1.9-10,5.6c-5.1,3.7-9.6,6.7-13.5,9V255.7z M564.7,151.7
			c-0.2,0.3-0.4,0.7-0.7,1L564.7,151.7z M558.6,141.3c0.3,0.2,0.4,0.5,0.6,0.8c-0.7,0.5-1.5,1.1-2.2,1.7
			C557.2,142.6,557.7,141.8,558.6,141.3 M589.7,113.8c-5.1,1.5-10.3,3.4-15.6,5.8c-5.3,2.4-9.8,5.3-13.5,8.5
			c-3.7,3.2-5.2,7.1-4.4,11.7c-1.2,1-2,1.5-2.4,1.5l-1.2,0.5c2.2,0,3.5,0.8,3.9,2.3c-39.9,31.3-56.1,101.2-56.1,101.2l0.3-0.5
			c-0.2,0.7-0.5,1.3-0.7,2c-2.6,7.3-3.8,13.6-3.8,18.7c0,1.3,0.6,4.1,1.8,8.5c1.2,4.4,2.1,8,2.9,11c3.5,0,6.2,2.1,7.9,6.3
			c1.8,4.2,3.6,7,5.6,8.3c5.9,3.9,11.6,7.7,17.3,11.4c5.7,3.7,13,5.6,22,5.6c11,0,23.1-3.4,36.4-10.2c0.8-1,1.5-2.3,2.1-3.9
			c0.6-1.6,1.5-2.8,2.6-3.4c21.5-15.6,39.7-32.1,54.6-49.6c14.9-17.5,22.3-35.2,22.3-53.1c0-10.4-2.8-20.5-8.5-30.4
			c-5.7-9.9-13-20-22-30.4c-0.8-0.6-1.8-1-2.9-1c-1.2,0-2.2-0.2-2.9-0.5c-0.8-0.6-1.6-1.8-2.3-3.4c-0.8-1-1.2-1.6-1.2-1.9
			c-2.7-2.3-6.1-5-10-8.3c-3.9-3.2-6.7-5.4-8.2-6.3c-3.1-1.3-5.9-1.7-8.2-1.2c-2.3,0.5-4.3-0.6-5.9-3.2
			C598.1,111,594.8,112.4,589.7,113.8"/>
	</defs>
	<clipPath id="SVGID_7_">
		<use xlink:href="#SVGID_6_"  style="overflow:visible;"/>
	</clipPath>
	
		<linearGradient id="SVGID_8_" gradientUnits="userSpaceOnUse" x1="-4.794456e-07" y1="438.198" x2="1" y2="438.198" gradientTransform="matrix(0 -206.868 -206.868 0 91233.2422 316.5599)">
		<stop  offset="0" style="stop-color:#5AA69C"/>
		<stop  offset="1" style="stop-color:#455C7C"/>
	</linearGradient>
	<rect x="496.3" y="109.7" class="st3" width="175.7" height="206.9"/>
</g>
<g>
	<defs>
		<rect id="SVGID_9_" width="1033.6" height="438.2"/>
	</defs>
	<clipPath id="SVGID_10_">
		<use xlink:href="#SVGID_9_"  style="overflow:visible;"/>
	</clipPath>
	<path class="st4" d="M905.6,144.4l-1.1-0.5l-2,1.6l1,0.1L905.6,144.4z M1018.7,148.2l-0.9-3.3c-0.1-1.5-2.6-2.8-3-3.5
		c-3.2-7.4-4.3-15-5-21.1c-2.3-10.2-5.9-30.8-5.9-31.5c-1.2-2.5-15-14.9-27.1-13.4l-4.5,0.6c-0.8,0.1-1.7,0.4-2.4,0.7
		c-16.9,1.7-64.5,66.4-64.5,66.4l1.1,0c-0.2,0.2-0.5,0.5-0.7,0.7c0.3-0.4,1.4-0.4,2.4,0.1c-2.7,1.8-6.7,4.2-9.3,6.3
		c1.2,2.3-4.2,5.5-7.9,7.9c2.8,0.4,4.2,0.5,4.2,0.7c-0.3,0.8-2,1.4-1.6,2.1l1-0.1c0.3,0,0.7,0,0.7,0.1l-4,2.4
		c3.8,0.5,2.5,1.3,6.6-0.1c1.4-0.3,8.8-3,12.9-4.5c1.7-1,2-1.8,3.3-2.6c7.5-2.2,20.8-11.7,25.2-13.8c12.4-8.2,25.3-18.7,36.8-29.4
		c5.1,10,8.2,16,8.5,21.6c2.6,3.4,3.9,7,7.1,9.2c3.6,2.2,15.5,5.3,17.2,4.8c1.7-0.1-0.4-0.2,1.4-0.3c2.4-0.3,1.4,0.7,3.8,0
		L1018.7,148.2z"/>
</g>
<g>
	<defs>
		<path id="SVGID_11_" d="M376.9,93.3c-0.5,0.1-1,0.2-1.6,0.4l-0.4,0.1c0,0,0,0-0.1-0.1c0,0,0,0.1-0.1,0.1l-20.1,7.6
			c-0.6,0.2-1.5,1.1-2.7,2.4c-12.8,6.8-24.2,28.4-27.3,34.5c-0.3,0.4-0.6,0.7-0.9,1.2c0.7-0.2-1.1,2.8-0.2,4
			c0.5,0.7,1.2,0.5,1.8,0.2c0.4-0.2,0.7-0.3,0.7-0.1c-3.8,5.5-7.4,11.2-11,17.2c-3.6,5.9-6.5,11.1-8.6,15.5c1.2,3.1,0.4,7-2.4,11.6
			c-0.2,0.8-0.7,1.7-1,2.6c-0.2,1.7,0.2,0.9,2.3-0.1c0.3-0.3,3.8-4.6,4.1-5c6.4-7,10.2-13.7,17.9-21.7c7.7-8,13.9-11.8,20.6-18.4
			c1.2-1.2,2.2-2,3.3-2.7c-30.8,75-53,172.9-55.8,184.5c0.2,0.8,0.5,2,0.8,3.5c0.6,3.1,1.5,6.1,2.8,9c1.2,2.9,2.9,5.5,5.1,7.6
			c2.2,2.1,5.1,2.6,8.6,1.3c1.9-0.5,2.4-0.9,1.5-1.2c-1-0.3-0.3-0.7,2.1-1.3c1.6-0.8,3.1-0.4,4.6,1c1.5,1.4,3.2,1.9,5.1,1.4
			c1.6-0.8,4.9-4,10-9.8c5.1-5.8,9.1-10.6,12-14.6c4.1-5.3,7.7-10.7,10.9-16.2c3.1-5.5,6.2-10.9,9.1-16.3c-0.2-1.1-0.9-0.7-1.4-0.1
			c8.4-10.9,17.2-23,26.5-36.2c9.5-13.5,18.3-25.5,26.5-35.8c0.8,0.2,0.9,0.6,0.5,1.2c-0.4,0.6-0.2,1.1,0.5,1.2
			c0,7.9-0.1,16.5-0.4,25.7c-0.2,8.3,0.2,14.9,1.2,19.8c-0.6,8.4-0.3,16.5,1.2,24.4c0.5,7,3,14.4,8.1,21.5c5,7.1,9.5,13.3,13,18.9
			c1.5,1.9,4.7,5.7,10.3,10.9c5.5,5.2,12.3,10.4,20.5,15.1c8.2,4.7,17.6,8.5,28,11c10.5,2.5,20.4,2.5,29,0.7
			c5.3-1.3,7.5-1.5,6.6-0.2c-0.9,1.2,0.2,1.5,3.6,0.8c4.1-0.9,7.3-2.3,9.4-3.8c2.1-1.6,5-3.1,8.5-4.7c4-1.3,9.9-2.7,17.7-4.7
			c7.7-2.1,14-3.8,19-4.7c0.8-1.7,1.1-2.6,0.8-2.6c-0.3-0.1,1.6-1.2,5.4-3.7c2.6-2.1,5.9-4.4,9.9-7.1c4-2.8,7.4-6,10.2-9.6
			c-11.9,5.2-23.2,7.5-33.5,7.8c-10.3,0.3-20.5,0.3-30.7,0.2c-10.8-1.1-22.9-3.2-35.6-7.6c-9.4-3.2-16.3-7.4-21.4-11.5
			c-1.1-1-2.2-2-3.1-2.8c-0.9-0.9-2-1.9-3-3c-4.8-4.8-9.2-10.4-12.9-16.8c-1.9-3.3-3.5-6.5-4.8-9.4c-0.5-2.8-0.9-5.7-1.2-8.8
			c-0.1,0-0.3,0-0.5-0.1c-0.1-5.3-0.4-10.5-0.7-15.4c-0.2-2.8-0.1-5.5,0.1-8.2c0.1-27.4,3.8-55.4,4.8-62.4c0.1-1.6,0.2-3.1,0.4-4.5
			c0.4-5.5,0.5-8.6,0.1-9.2c-0.2-3.5-0.3-5.8-0.2-6.9c0-1.1-0.1-2.4-0.4-3.9c-0.3-1.5-1.3-3.3-2.9-5.2c-1.6-1.9-4.1-5.7-7.3-11.4
			c-0.2,0.1-0.5,0.1-0.9,0.1c-0.5-1.1-0.9-2-1.4-3c0-0.1,0.1-0.2,0.1-0.3l0-0.5c-0.3-0.2-0.7-0.4-1.1-0.6
			c-11.5-18.3-33.6-7.1-45.3,0.9c-0.7,0.4-1.5,0.8-2.2,1.3c-3.2,1.9-6.3,4.7-9.4,8.6c-3.1,3.8-6.3,7.9-9.8,12.2
			c-3.5,4.3-6.6,8.5-9.3,12.6c-2.7,4.1-5.3,7.5-7.7,10.3c-0.4-7.4,1.1-15.7,4.6-24.9c0.8-1.3,1.7-2.6,2.5-3.9
			c0.8-1.3,1.3-2.8,1.4-4.7c1.4-5.7,2.7-11.9,3.8-18.5c1.1-6.5,2.1-12.3,3.1-17.2c0.9-2.7,2.1-5.3,3.5-7.6c1.5-2.3,2-4.4,1.7-6.1
			l-0.3-5.8c-1.2,0.7-1.9,1.1-2.1,1.3c-0.2,0.2-0.7,0.4-1.5,0.6L399,105c-1.1-1.1-1.3-2.6-0.7-4.4c0,0,0,0,0-0.1
			c0.6-1.8,1-3.4,1.1-4.8c-0.1,0-0.1,0-0.2,0c-0.1,0-0.1,0-0.2,0c0.1-4.4-3-5.8-7.2-5.8C387.5,89.8,381.6,91.6,376.9,93.3"/>
	</defs>
	<clipPath id="SVGID_12_">
		<use xlink:href="#SVGID_11_"  style="overflow:visible;"/>
	</clipPath>
	
		<linearGradient id="SVGID_13_" gradientUnits="userSpaceOnUse" x1="0" y1="438.198" x2="1" y2="438.198" gradientTransform="matrix(0 -281.1516 -281.1516 0 123658.9844 370.9814)">
		<stop  offset="0" style="stop-color:#5AA69C"/>
		<stop  offset="1" style="stop-color:#455C7C"/>
	</linearGradient>
	<rect x="295.4" y="89.8" class="st5" width="327.1" height="281.7"/>
</g>
<g>
	<defs>
		<path id="SVGID_14_" d="M761.7,239.8L761.7,239.8C761.7,239.8,761.7,239.8,761.7,239.8C761.7,239.8,761.7,239.8,761.7,239.8
			 M757.7,213c3.1,5.2,3.1,11.5,3.7,15.6c0,2.8-1.6,7.1,0.4,10c0.1-3,0.3-9.7,0.7,1.5c0.5,12.7-46.7,61.7-54.6,69.9
			c-0.5,0.8-1,1.6-1.5,2.4c0.6-4,3.1-11.5,5.5-16.7c0-2.3-1.8-2.9-1.8-4.6c4.3-11.5,8.6-24.8,15.9-36.9c4.3-8.7,14.1-19.6,19-27.1
			c2.4-2.3,1.8-4,1.2-6.4c0.1,0,0.3,0,0.4,0C749.2,220.6,754.8,215.7,757.7,213 M870.2,0c-36.1,64.7-52.6,114.3-76.4,184.1
			c-1.8,1.7-1.2,0.6-3.1,2.9c-5.7-3.9-9.7-9.1-12.6-12.3l0,0c-11.7-13.1-28-13-38.5-11.1c-3.6,0.3-7.2,0.9-8.9,2.1
			c-0.2,0.1-0.5,0.3-0.8,0.4c-0.3,0.1-0.4,0.2-0.4,0.2l0,0.1c-3.3,1.9-8.8,4.8-10.5,6.9c-7.9,7.5-14.7,16.2-19.6,23.7
			c-20.8,34.6-61.8,111.4-56.9,155.3c1.8,16.7,9.2,27.1,30.6,45c6.7,0,17.1,1.7,20.2,1.7c13.8-1.1,12.9-11.2,32.7-24.7
			c-1.5,0.8-3,0.1-4.5-1.8c1.8-4.6,9.2-11.5,13.5-15.6c10.4-11,20.2-26.6,27.5-38.7c5.5-12.1,12.2-22.5,17.7-29.4
			c0.6,5.2,2.4,13.9,4.9,27.1c4.1,17.9,10.8,39.9,26.9,50.8c8.6,4.6,26.3,13.9,31.8,13.9c2.1-0.3,1.5,1,0.9,2.3
			c-0.6,1.3-1.3,2.6,0.9,2.3l20.6-3.2c4.1-0.5,20.2-4.6,30.2-11.2c0.1-0.2,0.2-0.4,0.3-0.6c-1.1,0-2.3,0-3.4-0.1
			c-11.9-0.5-21.5-3.1-29.2-7.1c-29.9-18.7-25-53.9-27.1-88c0.5-2.5,0.8-3.9,0.8-3.9l1.4-0.1c0.5-4.4,1.1-8.5,1.6-12.4
			c2-14.5,4-25.6,6.1-33.3c5.9-19.4,2.2-5.6,9.8-35.8c1.8-5.2,5.5-13.9,7.3-20.2l8-27.7c1.8-4-0.6-10.4,1.2-12.7
			C888,89.5,902,71.6,902.6,50.2c0-2.9,6.1-10.4,8.6-13.3c1.8-4,3.7-11.5,3.7-14.4C913,2.9,880,0,870.2,0z"/>
	</defs>
	<clipPath id="SVGID_15_">
		<use xlink:href="#SVGID_14_"  style="overflow:visible;"/>
	</clipPath>
	
		<linearGradient id="SVGID_16_" gradientUnits="userSpaceOnUse" x1="0" y1="438.198" x2="1" y2="438.198" gradientTransform="matrix(272.493 0 0 -272.493 642.3653 119605.3438)">
		<stop  offset="0" style="stop-color:#5AA69C"/>
		<stop  offset="1" style="stop-color:#455C7C"/>
	</linearGradient>
	<rect x="637.9" y="0" class="st6" width="277" height="398.9"/>
</g>
<g>
	<defs>
		<path id="SVGID_17_" d="M215.7,18.3c-10.8,0.7-21.2,1.7-31.4,2.9c-0.7,0.1-1.3,0.1-2,0.3c0,0,0.1,0,0.1,0
			c-0.1-0.1-2.3,0.4-2.5,0.5c-0.9,0.2-1.8,0.6-2.8,0.8c-0.9,0.2-2.8-0.1-3.4,0.7c-0.2,0.2-1.8,0.2-2.1,0.2c-0.7,0.1-1.4,0.3-2.1,0.4
			c-1.3,0.3-2.7,0.6-4,0.9c-2.4,0.5-4.8,1-7.2,1.4c-5.3,1-10.5,1.8-15.8,2.6c-5.7,0.8-11.4,1.6-17.2,2.3c-6,0.7-12,1.4-18,2
			c-6.1,0.6-12.2,1.2-18.3,1.7c-6.1,0.5-12.1,1-18.2,1.5c-5.9,0.4-11.7,0.8-17.6,1.2c-5.5,0.4-11,0.7-16.5,1
			c-4.9,0.3-9.9,0.5-14.8,0.8c-4.2,0.2-8.4,0.4-12.6,0.6c-0.9,0-1.8,0.1-2.7,0.1c-3.6,0.6-5.8,1.2-6.1,1.5c-0.2,0.3-0.3,0.6-0.3,1
			v0.1c0.1,6.7,28.3,29,47.9,37.2c11.2,4.7,31.7,8.4,49.3,9c29.7,1,30.1,1.2,27,11.4c-4.8,16-9.4,35-13.5,55.7
			c-1.6,8.5-3,15.6-4,21.6l-0.2,1.2l-0.1,0.6c-0.8,2.4-6.6,4-6.6,4c-20.2,3.9-25.7,8.5-25.7,8.5l6.9,2.2
			c-9.6,2.2-28.5,24.3-28.5,24.3c20.2-6.9,33.1,0,47.4,1.2c-5,35-8.9,71.3-11.3,104.4c-8.3,2-16.5,4.2-24.6,6.8
			c-2.3,0.7-4.6,1.5-6.9,2.4c-3.8,1.4-7.5,2.8-11.1,4.5c-11.4,6-23.5,7.7-29.4,8.2c18.5,18,41.4,21.9,56.5,22.1
			c2.6-0.1,6.7-0.3,12.5-0.7c0.1,0,0.4,0,0.9,0c0,0,0.8,0.1,1.9,0.2c2.2,0.1,3.5,0.5,8.6,0.2c13.4-1.1,26.9-3.7,41.3-7.4
			c7.9-2.8,89.7-24.4,97.5-29.8l0.8-0.4c18.7-15.1,59-19,59-19c-27.1-10.6-32-11-32-11l3.3-1.7l0.8-0.4c-1-0.2-1.9-0.5-2.7-0.7
			c-5.9-3.3-67.6-8.1-120.1,16c-3.3,0.5-6.8,2-10.3,2.7c0-9.6,13.2-33.2,15.9-38.2c14.2-30.6,14.2-42,17.1-62.9
			c1.1-0.6,2.4-0.7,3.7-0.8c1.6-0.1,3.1-0.3,4.7-0.5c3.1-0.4,6.1-0.9,9.2-1.4c1.7-0.3,3.5-0.6,5.2-0.8c4-0.6,8-1.2,12-1.9
			c6.9-1.2,13.8-2.4,20.6-3.8c1.2-0.2,2.4-0.4,3.6-0.7c7.4-1.9,16.1-7.7,24-14.4c0.6-0.5,0.6,0.3,0.5,1.2c-0.1,0.8-0.1,1.7,0.6,1.2
			c13.6-10.5,27.3-28.3,24.1-28c-3.8,0.4-48.4,2.7-76.2,4.1c-0.3,0-0.7,0-1.1,0c-10.3,0.2-15.7,0.6-18.5,0.9
			c0.8-2.8,1.5-5.5,2.1-7.9L186,149c1.6-7.9,2.8-15,3.5-21l4.5-37.6l48.8-13.5c26.9-7.4,63.6-14.7,81.7-16.2l32.9-2.7l-15.3-9.3
			c-10.9-6.7-22.1-11.7-35.3-15.4c3.3-0.8,6.6-1.7,9.9-2.5c-1.7-1.7-4.3-2.7-7.8-3.1c-3.6-0.4-6.3-1-8.1-1.8
			c-3.2-0.6-4.6-0.9-4.3-1.1c0.4-0.2,0.7-0.9,0.9-2.3c-5.6,1.4-12.1,2.2-19.4,2.6c-7.4,0.4-12.7,0.2-15.9-0.3
			c-2.5-0.9-4.1-2-4.8-3.3c-0.7-1.3-2.7-2.2-5.9-2.8c-2.6-0.4-4-0.1-4.2,1c-0.2,1.1-2.2,1.1-6,0c-4.4-1.1-9.9-1.6-16.4-1.6
			C222,18,219,18.1,215.7,18.3"/>
	</defs>
	<clipPath id="SVGID_18_">
		<use xlink:href="#SVGID_17_"  style="overflow:visible;"/>
	</clipPath>
	
		<linearGradient id="SVGID_19_" gradientUnits="userSpaceOnUse" x1="-9.094947e-13" y1="438.198" x2="1" y2="438.198" gradientTransform="matrix(357.4214 0 0 -357.4214 0 156814.5625)">
		<stop  offset="0" style="stop-color:#5AA69C"/>
		<stop  offset="1" style="stop-color:#455C7C"/>
	</linearGradient>
	<rect y="18" class="st7" width="357.4" height="350.4"/>
</g>
</svg>
